<?xml version="1.0" encoding="UTF-8"?>
<svg version="1.1" xmlns="http://www.w3.org/2000/svg" width="192" height="192">
<path d="M0 0 C9.24 0 18.48 0 28 0 C28 2.31 28 4.62 28 7 C32.29 7 36.58 7 41 7 C41 9.31 41 11.62 41 14 C43.31 14 45.62 14 48 14 C48 18.29 48 22.58 48 27 C50.31 27 52.62 27 55 27 C55 40.53 55 54.06 55 68 C52.69 68 50.38 68 48 68 C48 72.62 48 77.24 48 82 C45.69 82 43.38 82 41 82 C41 84.31 41 86.62 41 89 C39.02 89 37.04 89 35 89 C35 91.31 35 93.62 35 96 C32.69 96 30.38 96 28 96 C28 98.31 28 100.62 28 103 C23.38 103 18.76 103 14 103 C14 105.31 14 107.62 14 110 C0.47 110 -13.06 110 -27 110 C-27 111.98 -27 113.96 -27 116 C-31.62 116 -36.24 116 -41 116 C-41 118.31 -41 120.62 -41 123 C-43.31 123 -45.62 123 -48 123 C-48 125.31 -48 127.62 -48 130 C-50.31 130 -52.62 130 -55 130 C-55 134.62 -55 139.24 -55 144 C-56.98 144 -58.96 144 -61 144 C-61 148.62 -61 153.24 -61 158 C-63.31 158 -65.62 158 -68 158 C-68 159.98 -68 161.96 -68 164 C-70.31 164 -72.62 164 -75 164 C-75 166.31 -75 168.62 -75 171 C-77.31 171 -79.62 171 -82 171 C-82 173.31 -82 175.62 -82 178 C-90.91 178 -99.82 178 -109 178 C-109 175.69 -109 173.38 -109 171 C-111.31 171 -113.62 171 -116 171 C-116 159.78 -116 148.56 -116 137 C-113.69 137 -111.38 137 -109 137 C-109 134.69 -109 132.38 -109 130 C-104.71 130 -100.42 130 -96 130 C-96 127.69 -96 125.38 -96 123 C-93.69 123 -91.38 123 -89 123 C-89 120.69 -89 118.38 -89 116 C-86.69 116 -84.38 116 -82 116 C-82 114.02 -82 112.04 -82 110 C-79.69 110 -77.38 110 -75 110 C-75 107.69 -75 105.38 -75 103 C-72.69 103 -70.38 103 -68 103 C-68 100.69 -68 98.38 -68 96 C-63.71 96 -59.42 96 -55 96 C-55 91.38 -55 86.76 -55 82 C-52.69 82 -50.38 82 -48 82 C-48 70.78 -48 59.56 -48 48 C-45.69 48 -43.38 48 -41 48 C-41 43.38 -41 38.76 -41 34 C-38.69 34 -36.38 34 -34 34 C-34 29.38 -34 24.76 -34 20 C-31.69 20 -29.38 20 -27 20 C-27 18.02 -27 16.04 -27 14 C-22.38 14 -17.76 14 -13 14 C-13 11.69 -13 9.38 -13 7 C-8.71 7 -4.42 7 0 7 C0 4.69 0 2.38 0 0 Z " fill="#A8ACB2" transform="translate(130,7)"/>
<path d="M0 0 C9.24 0 18.48 0 28 0 C28 2.31 28 4.62 28 7 C32.29 7 36.58 7 41 7 C41 9.31 41 11.62 41 14 C43.31 14 45.62 14 48 14 C48 18.29 48 22.58 48 27 C50.31 27 52.62 27 55 27 C55 40.53 55 54.06 55 68 C52.69 68 50.38 68 48 68 C48 72.62 48 77.24 48 82 C45.69 82 43.38 82 41 82 C41 84.31 41 86.62 41 89 C39.02 89 37.04 89 35 89 C35 91.31 35 93.62 35 96 C32.69 96 30.38 96 28 96 C28 98.31 28 100.62 28 103 C23.38 103 18.76 103 14 103 C14 105.31 14 107.62 14 110 C0.47 110 -13.06 110 -27 110 C-27 111.98 -27 113.96 -27 116 C-31.62 116 -36.24 116 -41 116 C-41 118.31 -41 120.62 -41 123 C-43.31 123 -45.62 123 -48 123 C-48 125.31 -48 127.62 -48 130 C-50.31 130 -52.62 130 -55 130 C-55 134.62 -55 139.24 -55 144 C-56.98 144 -58.96 144 -61 144 C-61 148.62 -61 153.24 -61 158 C-63.31 158 -65.62 158 -68 158 C-68 159.98 -68 161.96 -68 164 C-70.31 164 -72.62 164 -75 164 C-75 166.31 -75 168.62 -75 171 C-77.31 171 -79.62 171 -82 171 C-82 173.31 -82 175.62 -82 178 C-90.91 178 -99.82 178 -109 178 C-109 175.69 -109 173.38 -109 171 C-111.31 171 -113.62 171 -116 171 C-116 159.78 -116 148.56 -116 137 C-113.69 137 -111.38 137 -109 137 C-109 134.69 -109 132.38 -109 130 C-104.71 130 -100.42 130 -96 130 C-96 127.69 -96 125.38 -96 123 C-93.69 123 -91.38 123 -89 123 C-89 120.69 -89 118.38 -89 116 C-86.69 116 -84.38 116 -82 116 C-82 114.02 -82 112.04 -82 110 C-79.69 110 -77.38 110 -75 110 C-75 107.69 -75 105.38 -75 103 C-72.69 103 -70.38 103 -68 103 C-68 100.69 -68 98.38 -68 96 C-63.71 96 -59.42 96 -55 96 C-55 98.31 -55 100.62 -55 103 C-56.98 103 -58.96 103 -61 103 C-61 105.31 -61 107.62 -61 110 C-63.31 110 -65.62 110 -68 110 C-68 111.98 -68 113.96 -68 116 C-70.31 116 -72.62 116 -75 116 C-75 118.31 -75 120.62 -75 123 C-77.31 123 -79.62 123 -82 123 C-82 125.31 -82 127.62 -82 130 C-84.31 130 -86.62 130 -89 130 C-89 132.31 -89 134.62 -89 137 C-93.62 137 -98.24 137 -103 137 C-103 139.31 -103 141.62 -103 144 C-104.98 144 -106.96 144 -109 144 C-109 150.6 -109 157.2 -109 164 C-102.4 164 -95.8 164 -89 164 C-89 162.02 -89 160.04 -89 158 C-86.69 158 -84.38 158 -82 158 C-82 155.69 -82 153.38 -82 151 C-79.69 151 -77.38 151 -75 151 C-75 146.38 -75 141.76 -75 137 C-72.69 137 -70.38 137 -68 137 C-68 134.69 -68 132.38 -68 130 C-65.69 130 -63.38 130 -61 130 C-61 127.69 -61 125.38 -61 123 C-59.02 123 -57.04 123 -55 123 C-55 120.69 -55 118.38 -55 116 C-52.69 116 -50.38 116 -48 116 C-48 114.02 -48 112.04 -48 110 C-45.69 110 -43.38 110 -41 110 C-41 107.69 -41 105.38 -41 103 C-36.38 103 -31.76 103 -27 103 C-27 100.69 -27 98.38 -27 96 C-15.78 96 -4.56 96 7 96 C7 93.69 7 91.38 7 89 C11.62 89 16.24 89 21 89 C21 86.69 21 84.38 21 82 C23.31 82 25.62 82 28 82 C28 79.69 28 77.38 28 75 C30.31 75 32.62 75 35 75 C35 70.71 35 66.42 35 62 C36.98 62 38.96 62 41 62 C41 48.14 41 34.28 41 20 C39.02 20 37.04 20 35 20 C35 18.02 35 16.04 35 14 C21.14 14 7.28 14 -7 14 C-7 15.98 -7 17.96 -7 20 C-11.29 20 -15.58 20 -20 20 C-20 22.31 -20 24.62 -20 27 C-22.31 27 -24.62 27 -27 27 C-27 29.31 -27 31.62 -27 34 C-29.31 34 -31.62 34 -34 34 C-34 29.38 -34 24.76 -34 20 C-31.69 20 -29.38 20 -27 20 C-27 18.02 -27 16.04 -27 14 C-22.38 14 -17.76 14 -13 14 C-13 11.69 -13 9.38 -13 7 C-8.71 7 -4.42 7 0 7 C0 4.69 0 2.38 0 0 Z " fill="#13161E" transform="translate(130,7)"/>
<path d="M0 0 C13.86 0 27.72 0 42 0 C42 1.98 42 3.96 42 6 C43.98 6 45.96 6 48 6 C48 8.31 48 10.62 48 13 C46.02 13 44.04 13 42 13 C42 15.31 42 17.62 42 20 C37.38 20 32.76 20 28 20 C28 22.31 28 24.62 28 27 C23.38 27 18.76 27 14 27 C14 29.31 14 31.62 14 34 C9.38 34 4.76 34 0 34 C0 36.31 0 38.62 0 41 C-1.98 41 -3.96 41 -6 41 C-6 43.31 -6 45.62 -6 48 C-8.31 48 -10.62 48 -13 48 C-13 49.98 -13 51.96 -13 54 C-15.31 54 -17.62 54 -20 54 C-20 56.31 -20 58.62 -20 61 C-22.31 61 -24.62 61 -27 61 C-27 67.93 -27 74.86 -27 82 C-29.31 82 -31.62 82 -34 82 C-34 79.69 -34 77.38 -34 75 C-36.31 75 -38.62 75 -41 75 C-41 77.31 -41 79.62 -41 82 C-43.31 82 -45.62 82 -48 82 C-48 77.38 -48 72.76 -48 68 C-45.69 68 -43.38 68 -41 68 C-41 56.78 -41 45.56 -41 34 C-38.69 34 -36.38 34 -34 34 C-34 29.38 -34 24.76 -34 20 C-29.38 20 -24.76 20 -20 20 C-20 17.69 -20 15.38 -20 13 C-17.69 13 -15.38 13 -13 13 C-13 10.69 -13 8.38 -13 6 C-8.71 6 -4.42 6 0 6 C0 4.02 0 2.04 0 0 Z " fill="#91959C" transform="translate(123,21)"/>
<path d="M0 0 C2.31 0 4.62 0 7 0 C7 2.31 7 4.62 7 7 C9.31 7 11.62 7 14 7 C14 9.31 14 11.62 14 14 C11.69 14 9.38 14 7 14 C7 16.31 7 18.62 7 21 C4.69 21 2.38 21 0 21 C0 22.98 0 24.96 0 27 C-2.31 27 -4.62 27 -7 27 C-7 29.31 -7 31.62 -7 34 C-8.98 34 -10.96 34 -13 34 C-13 36.31 -13 38.62 -13 41 C-15.31 41 -17.62 41 -20 41 C-20 43.31 -20 45.62 -20 48 C-22.31 48 -24.62 48 -27 48 C-27 52.62 -27 57.24 -27 62 C-29.31 62 -31.62 62 -34 62 C-34 64.31 -34 66.62 -34 69 C-36.31 69 -38.62 69 -41 69 C-41 70.98 -41 72.96 -41 75 C-47.6 75 -54.2 75 -61 75 C-61 68.4 -61 61.8 -61 55 C-59.02 55 -57.04 55 -55 55 C-55 52.69 -55 50.38 -55 48 C-50.38 48 -45.76 48 -41 48 C-41 45.69 -41 43.38 -41 41 C-38.69 41 -36.38 41 -34 41 C-34 38.69 -34 36.38 -34 34 C-31.69 34 -29.38 34 -27 34 C-27 31.69 -27 29.38 -27 27 C-24.69 27 -22.38 27 -20 27 C-20 25.02 -20 23.04 -20 21 C-17.69 21 -15.38 21 -13 21 C-13 18.69 -13 16.38 -13 14 C-11.02 14 -9.04 14 -7 14 C-7 11.69 -7 9.38 -7 7 C-4.69 7 -2.38 7 0 7 C0 4.69 0 2.38 0 0 Z " fill="#A9ADB3" transform="translate(82,96)"/>
<path d="M0 0 C9.24 0 18.48 0 28 0 C28 2.31 28 4.62 28 7 C32.29 7 36.58 7 41 7 C41 9.31 41 11.62 41 14 C43.31 14 45.62 14 48 14 C48 29.84 48 45.68 48 62 C45.69 62 43.38 62 41 62 C41 48.14 41 34.28 41 20 C39.02 20 37.04 20 35 20 C35 18.02 35 16.04 35 14 C21.14 14 7.28 14 -7 14 C-7 15.98 -7 17.96 -7 20 C-11.29 20 -15.58 20 -20 20 C-20 22.31 -20 24.62 -20 27 C-22.31 27 -24.62 27 -27 27 C-27 29.31 -27 31.62 -27 34 C-29.31 34 -31.62 34 -34 34 C-34 29.38 -34 24.76 -34 20 C-31.69 20 -29.38 20 -27 20 C-27 18.02 -27 16.04 -27 14 C-22.38 14 -17.76 14 -13 14 C-13 11.69 -13 9.38 -13 7 C-8.71 7 -4.42 7 0 7 C0 4.69 0 2.38 0 0 Z " fill="#2C3038" transform="translate(130,7)"/>
<path d="M0 0 C9.24 0 18.48 0 28 0 C28 2.31 28 4.62 28 7 C21.07 7 14.14 7 7 7 C7 9.31 7 11.62 7 14 C2.38 14 -2.24 14 -7 14 C-7 15.98 -7 17.96 -7 20 C-11.29 20 -15.58 20 -20 20 C-20 22.31 -20 24.62 -20 27 C-22.31 27 -24.62 27 -27 27 C-27 29.31 -27 31.62 -27 34 C-29.31 34 -31.62 34 -34 34 C-34 29.38 -34 24.76 -34 20 C-31.69 20 -29.38 20 -27 20 C-27 18.02 -27 16.04 -27 14 C-22.38 14 -17.76 14 -13 14 C-13 11.69 -13 9.38 -13 7 C-8.71 7 -4.42 7 0 7 C0 4.69 0 2.38 0 0 Z " fill="#13161E" transform="translate(130,7)"/>
<path d="M0 0 C2.31 0 4.62 0 7 0 C7 4.62 7 9.24 7 14 C4.69 14 2.38 14 0 14 C0 20.6 0 27.2 0 34 C-6.6 34 -13.2 34 -20 34 C-20 27.4 -20 20.8 -20 14 C-18.02 14 -16.04 14 -14 14 C-14 11.69 -14 9.38 -14 7 C-9.38 7 -4.76 7 0 7 C0 4.69 0 2.38 0 0 Z " fill="#C7CEDB" transform="translate(41,137)"/>
<path d="M0 0 C2.31 0 4.62 0 7 0 C7 4.29 7 8.58 7 13 C4.69 13 2.38 13 0 13 C0 15.31 0 17.62 0 20 C-2.31 20 -4.62 20 -7 20 C-7 22.31 -7 24.62 -7 27 C-11.62 27 -16.24 27 -21 27 C-21 29.31 -21 31.62 -21 34 C-23.31 34 -25.62 34 -28 34 C-28 29.38 -28 24.76 -28 20 C-23.38 20 -18.76 20 -14 20 C-14 15.38 -14 10.76 -14 6 C-9.38 6 -4.76 6 0 6 C0 4.02 0 2.04 0 0 Z " fill="#BBC0C3" transform="translate(158,69)"/>
<path d="M0 0 C2.31 0 4.62 0 7 0 C7 11.22 7 22.44 7 34 C4.69 34 2.38 34 0 34 C0 22.78 0 11.56 0 0 Z " fill="#13161E" transform="translate(82,55)"/>
<path d="M0 0 C2.31 0 4.62 0 7 0 C7 2.31 7 4.62 7 7 C9.31 7 11.62 7 14 7 C14 9.31 14 11.62 14 14 C7.07 14 0.14 14 -7 14 C-7 11.69 -7 9.38 -7 7 C-4.69 7 -2.38 7 0 7 C0 4.69 0 2.38 0 0 Z " fill="#C7CEDB" transform="translate(82,96)"/>
<path d="M0 0 C9.24 0 18.48 0 28 0 C28 2.31 28 4.62 28 7 C18.76 7 9.52 7 0 7 C0 4.69 0 2.38 0 0 Z " fill="#13161E" transform="translate(130,7)"/>
<path d="M0 0 C6.6 0 13.2 0 20 0 C20 2.31 20 4.62 20 7 C15.38 7 10.76 7 6 7 C6 9.31 6 11.62 6 14 C4.02 14 2.04 14 0 14 C0 9.38 0 4.76 0 0 Z " fill="#13161E" transform="translate(21,137)"/>
<path d="M0 0 C4.62 0 9.24 0 14 0 C14 2.31 14 4.62 14 7 C11.69 7 9.38 7 7 7 C7 9.31 7 11.62 7 14 C4.69 14 2.38 14 0 14 C0 9.38 0 4.76 0 0 Z " fill="#9CA0A8" transform="translate(41,151)"/>
<path d="M0 0 C2.31 0 4.62 0 7 0 C7 6.93 7 13.86 7 21 C4.69 21 2.38 21 0 21 C0 14.07 0 7.14 0 0 Z " fill="#2C3038" transform="translate(171,48)"/>
<path d="M0 0 C4.62 0 9.24 0 14 0 C14 2.31 14 4.62 14 7 C11.69 7 9.38 7 7 7 C7 9.31 7 11.62 7 14 C4.69 14 2.38 14 0 14 C0 9.38 0 4.76 0 0 Z " fill="#2C3038" transform="translate(96,27)"/>
<path d="M0 0 C6.93 0 13.86 0 21 0 C21 2.31 21 4.62 21 7 C14.07 7 7.14 7 0 7 C0 4.69 0 2.38 0 0 Z " fill="#3E434D" transform="translate(137,14)"/>
<path d="M0 0 C6.6 0 13.2 0 20 0 C20 2.31 20 4.62 20 7 C13.4 7 6.8 7 0 7 C0 4.69 0 2.38 0 0 Z " fill="#2C3038" transform="translate(21,171)"/>
<path d="M0 0 C1.98 0 3.96 0 6 0 C6 6.93 6 13.86 6 21 C4.02 21 2.04 21 0 21 C0 14.07 0 7.14 0 0 Z " fill="#BBC0C3" transform="translate(165,48)"/>
<path d="M0 0 C6.6 0 13.2 0 20 0 C20 1.98 20 3.96 20 6 C13.4 6 6.8 6 0 6 C0 4.02 0 2.04 0 0 Z " fill="#9CA0A8" transform="translate(21,165)"/>
<path d="M0 0 C4.62 0 9.24 0 14 0 C14 2.31 14 4.62 14 7 C9.38 7 4.76 7 0 7 C0 4.69 0 2.38 0 0 Z " fill="#2C3038" transform="translate(103,103)"/>
<path d="M0 0 C4.62 0 9.24 0 14 0 C14 2.31 14 4.62 14 7 C9.38 7 4.76 7 0 7 C0 4.69 0 2.38 0 0 Z " fill="#2C3038" transform="translate(137,96)"/>
<path d="M0 0 C2.31 0 4.62 0 7 0 C7 4.62 7 9.24 7 14 C4.69 14 2.38 14 0 14 C0 9.38 0 4.76 0 0 Z " fill="#13161E" transform="translate(75,89)"/>
<path d="M0 0 C2.31 0 4.62 0 7 0 C7 4.62 7 9.24 7 14 C4.69 14 2.38 14 0 14 C0 9.38 0 4.76 0 0 Z " fill="#2C3038" transform="translate(82,75)"/>
<path d="M0 0 C2.31 0 4.62 0 7 0 C7 4.62 7 9.24 7 14 C4.69 14 2.38 14 0 14 C0 9.38 0 4.76 0 0 Z " fill="#13161E" transform="translate(89,41)"/>
<path d="M0 0 C2.31 0 4.62 0 7 0 C7 4.62 7 9.24 7 14 C4.69 14 2.38 14 0 14 C0 9.38 0 4.76 0 0 Z " fill="#3F4349" transform="translate(171,34)"/>
<path d="M0 0 C4.62 0 9.24 0 14 0 C14 1.98 14 3.96 14 6 C9.38 6 4.76 6 0 6 C0 4.02 0 2.04 0 0 Z " fill="#13161E" transform="translate(103,21)"/>
<path d="M0 0 C1.98 0 3.96 0 6 0 C6 4.29 6 8.58 6 13 C4.02 13 2.04 13 0 13 C0 8.71 0 4.42 0 0 Z " fill="#2C3038" transform="translate(165,69)"/>
<path d="M0 0 C2.31 0 4.62 0 7 0 C7 2.31 7 4.62 7 7 C4.69 7 2.38 7 0 7 C0 4.69 0 2.38 0 0 Z " fill="#2C3038" transform="translate(48,158)"/>
<path d="M0 0 C2.31 0 4.62 0 7 0 C7 2.31 7 4.62 7 7 C4.69 7 2.38 7 0 7 C0 4.69 0 2.38 0 0 Z " fill="#7D8189" transform="translate(48,151)"/>
<path d="M0 0 C2.31 0 4.62 0 7 0 C7 2.31 7 4.62 7 7 C4.69 7 2.38 7 0 7 C0 4.69 0 2.38 0 0 Z " fill="#51565D" transform="translate(55,144)"/>
<path d="M0 0 C2.31 0 4.62 0 7 0 C7 2.31 7 4.62 7 7 C4.69 7 2.38 7 0 7 C0 4.69 0 2.38 0 0 Z " fill="#9CA0A8" transform="translate(48,144)"/>
<path d="M0 0 C2.31 0 4.62 0 7 0 C7 2.31 7 4.62 7 7 C4.69 7 2.38 7 0 7 C0 4.69 0 2.38 0 0 Z " fill="#2C3038" transform="translate(34,137)"/>
<path d="M0 0 C2.31 0 4.62 0 7 0 C7 2.31 7 4.62 7 7 C4.69 7 2.38 7 0 7 C0 4.69 0 2.38 0 0 Z " fill="#C7CEDB" transform="translate(48,130)"/>
<path d="M0 0 C2.31 0 4.62 0 7 0 C7 2.31 7 4.62 7 7 C4.69 7 2.38 7 0 7 C0 4.69 0 2.38 0 0 Z " fill="#C7CEDB" transform="translate(55,123)"/>
<path d="M0 0 C2.31 0 4.62 0 7 0 C7 2.31 7 4.62 7 7 C4.69 7 2.38 7 0 7 C0 4.69 0 2.38 0 0 Z " fill="#2C3038" transform="translate(89,110)"/>
<path d="M0 0 C2.31 0 4.62 0 7 0 C7 2.31 7 4.62 7 7 C4.69 7 2.38 7 0 7 C0 4.69 0 2.38 0 0 Z " fill="#91959C" transform="translate(96,103)"/>
<path d="M0 0 C2.31 0 4.62 0 7 0 C7 2.31 7 4.62 7 7 C4.69 7 2.38 7 0 7 C0 4.69 0 2.38 0 0 Z " fill="#2C3038" transform="translate(151,89)"/>
<path d="M0 0 C2.31 0 4.62 0 7 0 C7 2.31 7 4.62 7 7 C4.69 7 2.38 7 0 7 C0 4.69 0 2.38 0 0 Z " fill="#2C3038" transform="translate(158,82)"/>
<path d="M0 0 C2.31 0 4.62 0 7 0 C7 2.31 7 4.62 7 7 C4.69 7 2.38 7 0 7 C0 4.69 0 2.38 0 0 Z " fill="#3E434F" transform="translate(103,27)"/>
<path d="M0 0 C2.31 0 4.62 0 7 0 C7 2.31 7 4.62 7 7 C4.69 7 2.38 7 0 7 C0 4.69 0 2.38 0 0 Z " fill="#13161E" transform="translate(96,27)"/>
<path d="M0 0 C2.31 0 4.62 0 7 0 C7 2.31 7 4.62 7 7 C4.69 7 2.38 7 0 7 C0 4.69 0 2.38 0 0 Z " fill="#2C3038" transform="translate(130,14)"/>
<path d="M0 0 C2.31 0 4.62 0 7 0 C7 1.98 7 3.96 7 6 C4.69 6 2.38 6 0 6 C0 4.02 0 2.04 0 0 Z " fill="#2C3038" transform="translate(41,165)"/>
<path d="M0 0 C2.31 0 4.62 0 7 0 C7 1.98 7 3.96 7 6 C4.69 6 2.38 6 0 6 C0 4.02 0 2.04 0 0 Z " fill="#91959C" transform="translate(34,165)"/>
<path d="M0 0 C1.98 0 3.96 0 6 0 C6 2.31 6 4.62 6 7 C4.02 7 2.04 7 0 7 C0 4.69 0 2.38 0 0 Z " fill="#2C3038" transform="translate(21,144)"/>
<path d="M0 0 C2.31 0 4.62 0 7 0 C7 1.98 7 3.96 7 6 C4.69 6 2.38 6 0 6 C0 4.02 0 2.04 0 0 Z " fill="#C7CEDB" transform="translate(62,117)"/>
<path d="M0 0 C1.98 0 3.96 0 6 0 C6 2.31 6 4.62 6 7 C4.02 7 2.04 7 0 7 C0 4.69 0 2.38 0 0 Z " fill="#C7CEDB" transform="translate(69,110)"/>
<path d="M0 0 C1.98 0 3.96 0 6 0 C6 1.98 6 3.96 6 6 C4.02 6 2.04 6 0 6 C0 4.02 0 2.04 0 0 Z " fill="#3F4349" transform="translate(165,21)"/>
<path d="M0 0 C1.98 0 3.96 0 6 0 C6 1.98 6 3.96 6 6 C4.02 6 2.04 6 0 6 C0 4.02 0 2.04 0 0 Z " fill="#3E434F" transform="translate(117,21)"/>
</svg>
